<mxfile host="app.diagrams.net" agent="Mozilla/5.0 (Windows NT 10.0; Win64; x64) AppleWebKit/537.36 (KHTML, like Gecko) Chrome/131.0.0.0 Safari/537.36" version="25.0.3">
  <diagram name="Página-1" id="UeQZPPU1TAcOwyg4bMCU">
    <mxGraphModel dx="1050" dy="557" grid="1" gridSize="10" guides="1" tooltips="1" connect="1" arrows="1" fold="1" page="1" pageScale="1" pageWidth="827" pageHeight="1169" math="0" shadow="0">
      <root>
        <mxCell id="0" />
        <mxCell id="1" parent="0" />
        <mxCell id="aXoiTtzpDU5WIcmW5ZQC-1" value="e_reposo" style="ellipse;whiteSpace=wrap;html=1;aspect=fixed;" vertex="1" parent="1">
          <mxGeometry x="320" y="110" width="80" height="80" as="geometry" />
        </mxCell>
        <mxCell id="aXoiTtzpDU5WIcmW5ZQC-2" value="e_entrando" style="ellipse;whiteSpace=wrap;html=1;aspect=fixed;" vertex="1" parent="1">
          <mxGeometry x="520" y="300" width="80" height="80" as="geometry" />
        </mxCell>
        <mxCell id="aXoiTtzpDU5WIcmW5ZQC-3" value="e_esperando" style="ellipse;whiteSpace=wrap;html=1;aspect=fixed;" vertex="1" parent="1">
          <mxGeometry x="320" y="490" width="80" height="80" as="geometry" />
        </mxCell>
        <mxCell id="aXoiTtzpDU5WIcmW5ZQC-4" value="e_soltado" style="ellipse;whiteSpace=wrap;html=1;aspect=fixed;" vertex="1" parent="1">
          <mxGeometry x="110" y="300" width="80" height="80" as="geometry" />
        </mxCell>
        <mxCell id="aXoiTtzpDU5WIcmW5ZQC-5" value="" style="endArrow=classic;html=1;rounded=0;exitX=1;exitY=1;exitDx=0;exitDy=0;" edge="1" parent="1" source="aXoiTtzpDU5WIcmW5ZQC-1" target="aXoiTtzpDU5WIcmW5ZQC-2">
          <mxGeometry width="50" height="50" relative="1" as="geometry">
            <mxPoint x="350" y="260" as="sourcePoint" />
            <mxPoint x="400" y="210" as="targetPoint" />
          </mxGeometry>
        </mxCell>
        <mxCell id="aXoiTtzpDU5WIcmW5ZQC-11" value="Boton pulsado" style="edgeLabel;html=1;align=center;verticalAlign=middle;resizable=0;points=[];" vertex="1" connectable="0" parent="aXoiTtzpDU5WIcmW5ZQC-5">
          <mxGeometry x="-0.1051" y="2" relative="1" as="geometry">
            <mxPoint as="offset" />
          </mxGeometry>
        </mxCell>
        <mxCell id="aXoiTtzpDU5WIcmW5ZQC-6" value="" style="endArrow=classic;html=1;rounded=0;" edge="1" parent="1" source="aXoiTtzpDU5WIcmW5ZQC-2" target="aXoiTtzpDU5WIcmW5ZQC-3">
          <mxGeometry width="50" height="50" relative="1" as="geometry">
            <mxPoint x="530" y="460" as="sourcePoint" />
            <mxPoint x="580" y="410" as="targetPoint" />
          </mxGeometry>
        </mxCell>
        <mxCell id="aXoiTtzpDU5WIcmW5ZQC-7" value="" style="endArrow=classic;html=1;rounded=0;entryX=1;entryY=1;entryDx=0;entryDy=0;" edge="1" parent="1" source="aXoiTtzpDU5WIcmW5ZQC-3" target="aXoiTtzpDU5WIcmW5ZQC-4">
          <mxGeometry width="50" height="50" relative="1" as="geometry">
            <mxPoint x="270" y="530" as="sourcePoint" />
            <mxPoint x="320" y="480" as="targetPoint" />
          </mxGeometry>
        </mxCell>
        <mxCell id="aXoiTtzpDU5WIcmW5ZQC-12" value="Botón soltado" style="edgeLabel;html=1;align=center;verticalAlign=middle;resizable=0;points=[];" vertex="1" connectable="0" parent="aXoiTtzpDU5WIcmW5ZQC-7">
          <mxGeometry x="0.1206" y="1" relative="1" as="geometry">
            <mxPoint as="offset" />
          </mxGeometry>
        </mxCell>
        <mxCell id="aXoiTtzpDU5WIcmW5ZQC-8" value="" style="endArrow=classic;html=1;rounded=0;exitX=1;exitY=0;exitDx=0;exitDy=0;" edge="1" parent="1" source="aXoiTtzpDU5WIcmW5ZQC-4" target="aXoiTtzpDU5WIcmW5ZQC-1">
          <mxGeometry width="50" height="50" relative="1" as="geometry">
            <mxPoint x="170" y="310" as="sourcePoint" />
            <mxPoint x="220" y="260" as="targetPoint" />
          </mxGeometry>
        </mxCell>
        <mxCell id="aXoiTtzpDU5WIcmW5ZQC-9" value="" style="curved=1;endArrow=classic;html=1;rounded=0;exitX=1;exitY=1;exitDx=0;exitDy=0;entryX=0.245;entryY=0.888;entryDx=0;entryDy=0;entryPerimeter=0;" edge="1" parent="1" source="aXoiTtzpDU5WIcmW5ZQC-3" target="aXoiTtzpDU5WIcmW5ZQC-3">
          <mxGeometry width="50" height="50" relative="1" as="geometry">
            <mxPoint x="150" y="720" as="sourcePoint" />
            <mxPoint x="200" y="670" as="targetPoint" />
            <Array as="points">
              <mxPoint x="420" y="600" />
              <mxPoint x="370" y="640" />
              <mxPoint x="310" y="610" />
            </Array>
          </mxGeometry>
        </mxCell>
        <mxCell id="aXoiTtzpDU5WIcmW5ZQC-10" value="Botón sigue pulsado" style="edgeLabel;html=1;align=center;verticalAlign=middle;resizable=0;points=[];" vertex="1" connectable="0" parent="aXoiTtzpDU5WIcmW5ZQC-9">
          <mxGeometry x="-0.1185" y="-6" relative="1" as="geometry">
            <mxPoint x="-14" y="-19" as="offset" />
          </mxGeometry>
        </mxCell>
      </root>
    </mxGraphModel>
  </diagram>
</mxfile>
